<!--?xml version="1.0" encoding="utf-8"?-->
<!-- Svg Vector Icons : http://www.onlinewebfonts.com/icon -->

<svg version="1.1" xmlns="http://www.w3.org/2000/svg" xmlns:xlink="http://www.w3.org/1999/xlink" x="0px" y="0px" viewBox="0 0 256 256" enable-background="new 0 0 256 256" xml:space="preserve">
<metadata> Svg Vector Icons : http://www.onlinewebfonts.com/icon </metadata>
<g> <path fill="#ffffff" data-title="Layer 0" xs="0" d="M231.3,10H77.8C69.6,10,63,16.6,63,24.8v29.5H24.8C16.6,54.3,10,60.9,10,69v162.3c0,8.1,6.6,14.8,14.8,14.8 H187c8.1,0,14.8-6.6,14.8-14.8v-38.5h29.5c8.1,0,14.8-6.6,14.8-14.8V24.8C246,16.6,239.4,10,231.3,10L231.3,10z M187,178v53.2H24.8 V69H187V178z M230.7,178h-28.9V69c0-8.1-6.6-14.8-14.8-14.8H77.8V24.8h153.5L230.7,178z"/></g>
</svg>